<mxfile host="Electron" modified="2023-05-03T13:56:26.491Z" agent="Mozilla/5.0 (Windows NT 10.0; Win64; x64) AppleWebKit/537.36 (KHTML, like Gecko) draw.io/21.2.1 Chrome/112.0.5615.87 Electron/24.1.2 Safari/537.36" etag="PXl1ubgAQ3RdaNyNO1eU" version="21.2.1" type="device">
  <diagram name="第 1 页" id="indisLRFP4kBTXNJLHcs">
    <mxGraphModel dx="898" dy="579" grid="1" gridSize="10" guides="1" tooltips="1" connect="1" arrows="1" fold="1" page="1" pageScale="1" pageWidth="827" pageHeight="1169" math="0" shadow="0">
      <root>
        <mxCell id="0" />
        <mxCell id="1" parent="0" />
        <mxCell id="TZQG_eTM_Jlkd09ifVAf-1" value="&lt;font color=&quot;#ffffff&quot; style=&quot;font-size: 18px;&quot;&gt;&lt;b&gt;Working&lt;br&gt;Directory&lt;/b&gt;&lt;/font&gt;" style="rounded=0;whiteSpace=wrap;html=1;fillColor=#ff5a26;shadow=1;strokeColor=none;" parent="1" vertex="1">
          <mxGeometry x="170" y="140" width="170" height="60" as="geometry" />
        </mxCell>
        <mxCell id="TZQG_eTM_Jlkd09ifVAf-2" value="&lt;font color=&quot;#ffffff&quot;&gt;&lt;span style=&quot;font-size: 18px;&quot;&gt;&lt;b&gt;Staging&lt;br&gt;&lt;/b&gt;&lt;/span&gt;&lt;/font&gt;&lt;b&gt;&lt;font color=&quot;#ffffff&quot; style=&quot;font-size: 18px;&quot;&gt;Area&lt;/font&gt;&lt;/b&gt;" style="rounded=0;whiteSpace=wrap;html=1;fillColor=#0083a0;shadow=1;strokeColor=none;" parent="1" vertex="1">
          <mxGeometry x="380" y="140" width="170" height="60" as="geometry" />
        </mxCell>
        <mxCell id="TZQG_eTM_Jlkd09ifVAf-3" value="&lt;font color=&quot;#ffffff&quot;&gt;&lt;span style=&quot;font-size: 18px;&quot;&gt;&lt;b&gt;.git directory&lt;br&gt;(Repository)&lt;br&gt;&lt;/b&gt;&lt;/span&gt;&lt;/font&gt;" style="rounded=0;whiteSpace=wrap;html=1;fillColor=#f8cecc;shadow=1;strokeColor=none;" parent="1" vertex="1">
          <mxGeometry x="590" y="140" width="170" height="60" as="geometry" />
        </mxCell>
        <mxCell id="TZQG_eTM_Jlkd09ifVAf-4" value="" style="endArrow=none;html=1;rounded=0;entryX=0.5;entryY=1;entryDx=0;entryDy=0;strokeWidth=2;" parent="1" target="TZQG_eTM_Jlkd09ifVAf-1" edge="1">
          <mxGeometry width="50" height="50" relative="1" as="geometry">
            <mxPoint x="255" y="440" as="sourcePoint" />
            <mxPoint x="420" y="260" as="targetPoint" />
          </mxGeometry>
        </mxCell>
        <mxCell id="TZQG_eTM_Jlkd09ifVAf-5" value="" style="endArrow=none;html=1;rounded=0;entryX=0.5;entryY=1;entryDx=0;entryDy=0;strokeWidth=2;" parent="1" edge="1">
          <mxGeometry width="50" height="50" relative="1" as="geometry">
            <mxPoint x="465" y="440" as="sourcePoint" />
            <mxPoint x="464.5" y="200" as="targetPoint" />
          </mxGeometry>
        </mxCell>
        <mxCell id="TZQG_eTM_Jlkd09ifVAf-6" value="" style="endArrow=none;html=1;rounded=0;entryX=0.5;entryY=1;entryDx=0;entryDy=0;strokeWidth=2;" parent="1" edge="1">
          <mxGeometry width="50" height="50" relative="1" as="geometry">
            <mxPoint x="680" y="440" as="sourcePoint" />
            <mxPoint x="680" y="200" as="targetPoint" />
          </mxGeometry>
        </mxCell>
        <mxCell id="TZQG_eTM_Jlkd09ifVAf-14" value="" style="shape=flexArrow;endArrow=classic;html=1;rounded=0;width=36;endSize=30.03;strokeColor=none;fillColor=#918881;endWidth=17;" parent="1" edge="1">
          <mxGeometry width="50" height="50" relative="1" as="geometry">
            <mxPoint x="679" y="392" as="sourcePoint" />
            <mxPoint x="254" y="392" as="targetPoint" />
            <Array as="points">
              <mxPoint x="470" y="392" />
            </Array>
          </mxGeometry>
        </mxCell>
        <mxCell id="TZQG_eTM_Jlkd09ifVAf-15" value="&lt;b style=&quot;font-size: 14px;&quot;&gt;&lt;font style=&quot;font-size: 14px;&quot;&gt;使用&lt;/font&gt;&lt;font color=&quot;#ffffff&quot; style=&quot;font-size: 14px;&quot;&gt; git checkout -- index.html &lt;/font&gt;&lt;font style=&quot;font-size: 14px;&quot;&gt;命令，撤销对index.html&lt;br&gt;文件的修改&lt;br&gt;&lt;/font&gt;&lt;/b&gt;" style="edgeLabel;html=1;align=center;verticalAlign=middle;resizable=0;points=[];labelBackgroundColor=none;" parent="TZQG_eTM_Jlkd09ifVAf-14" vertex="1" connectable="0">
          <mxGeometry x="-0.143" y="3" relative="1" as="geometry">
            <mxPoint x="-29" y="-2" as="offset" />
          </mxGeometry>
        </mxCell>
        <mxCell id="TZQG_eTM_Jlkd09ifVAf-16" value="&lt;span style=&quot;font-size: 16px;&quot;&gt;&lt;b&gt;&lt;font color=&quot;#0083a0&quot;&gt;工作区和Git仓库中&lt;/font&gt;&lt;/b&gt;&lt;/span&gt;" style="text;html=1;strokeColor=none;fillColor=none;align=center;verticalAlign=middle;whiteSpace=wrap;rounded=0;" parent="1" vertex="1">
          <mxGeometry x="368" y="219" width="154" height="30" as="geometry" />
        </mxCell>
        <mxCell id="KpldcIZueb4CcDLW8cYI-1" value="&lt;font color=&quot;#0083a0&quot; style=&quot;font-size: 16px;&quot;&gt;&lt;b style=&quot;&quot;&gt;index.html&lt;/b&gt;&lt;/font&gt;" style="rounded=0;whiteSpace=wrap;html=1;strokeColor=#0083A0;" vertex="1" parent="1">
          <mxGeometry x="202.5" y="232" width="105" height="30" as="geometry" />
        </mxCell>
        <mxCell id="KpldcIZueb4CcDLW8cYI-2" value="&lt;font color=&quot;#0083a0&quot; style=&quot;font-size: 16px;&quot;&gt;&lt;b style=&quot;&quot;&gt;index.html&lt;/b&gt;&lt;/font&gt;" style="rounded=0;whiteSpace=wrap;html=1;strokeColor=#0083A0;" vertex="1" parent="1">
          <mxGeometry x="625.5" y="233" width="105" height="30" as="geometry" />
        </mxCell>
        <mxCell id="KpldcIZueb4CcDLW8cYI-3" value="" style="endArrow=classic;startArrow=classic;html=1;rounded=0;exitX=1;exitY=0.5;exitDx=0;exitDy=0;entryX=0;entryY=0.5;entryDx=0;entryDy=0;strokeWidth=2;strokeColor=#0083A0;" edge="1" parent="1" target="KpldcIZueb4CcDLW8cYI-2">
          <mxGeometry width="50" height="50" relative="1" as="geometry">
            <mxPoint x="307.5" y="247" as="sourcePoint" />
            <mxPoint x="440" y="282" as="targetPoint" />
          </mxGeometry>
        </mxCell>
        <mxCell id="KpldcIZueb4CcDLW8cYI-4" value="&lt;b&gt;&lt;font color=&quot;#0083a0&quot; style=&quot;font-size: 16px;&quot;&gt;index.html的内容保持一致&lt;/font&gt;&lt;/b&gt;" style="text;html=1;strokeColor=none;fillColor=none;align=center;verticalAlign=middle;whiteSpace=wrap;rounded=0;" vertex="1" parent="1">
          <mxGeometry x="370" y="247" width="210" height="30" as="geometry" />
        </mxCell>
        <mxCell id="KpldcIZueb4CcDLW8cYI-5" value="&lt;font color=&quot;#ff0000&quot; size=&quot;1&quot; style=&quot;&quot;&gt;&lt;b style=&quot;font-size: 12px;&quot;&gt;修改了index.html&lt;/b&gt;&lt;/font&gt;" style="rounded=0;whiteSpace=wrap;html=1;strokeColor=#FF0000;" vertex="1" parent="1">
          <mxGeometry x="202.5" y="282" width="105" height="30" as="geometry" />
        </mxCell>
        <mxCell id="KpldcIZueb4CcDLW8cYI-6" value="&lt;font color=&quot;#0083a0&quot; style=&quot;font-size: 16px;&quot;&gt;&lt;b style=&quot;&quot;&gt;index.html&lt;/b&gt;&lt;/font&gt;" style="rounded=0;whiteSpace=wrap;html=1;strokeColor=#0083A0;" vertex="1" parent="1">
          <mxGeometry x="160" y="370" width="93" height="44" as="geometry" />
        </mxCell>
      </root>
    </mxGraphModel>
  </diagram>
</mxfile>
